# xmcd CD database file
#
# Track frame offsets:
#	150
#	17053
#	36134
#	55908
#	78005
#	91194
#	103893
#	124370
#	147625
#	160918
#
# Disc length: 3007 seconds
#
# Revision: 2
# Processed by: cddbd v1.5.2PL0 Copyright (c) Steve Scherf et al.
# Submitted via: CDex 1.70beta2
#
DISCID=810bbd0a
DTITLE=C.C. Adcock - Lafayette Marquis
DYEAR=2004
DGENRE=Southern Rock
TTITLE0=Y'all'd Think She'd Be Good 2 Me
TTITLE1=Stealin' All Day
TTITLE2=All 4 The Betta
TTITLE3=Blacksnake Bite
TTITLE4=Runaway Life
TTITLE5=Loaded Gun
TTITLE6=Love N' Gold
TTITLE7=Slangshotz N' Boom-R-Angz
TTITLE8=I Love You
TTITLE9=Between The Lies
EXTD=YEAR: 2004
EXTT0=
EXTT1=
EXTT2=
EXTT3=
EXTT4=
EXTT5=
EXTT6=
EXTT7=
EXTT8=
EXTT9=
PLAYORDER=
